<?xml version="1.0" standalone="no"?>
<!DOCTYPE svg PUBLIC "-//W3C//DTD SVG 20010904//EN"
 "http://www.w3.org/TR/2001/REC-SVG-20010904/DTD/svg10.dtd">
<svg version="1.0" xmlns="http://www.w3.org/2000/svg"
 width="177.000000pt" height="77.000000pt" viewBox="0 0 177.000000 77.000000"
 preserveAspectRatio="xMidYMid meet">

<g transform="translate(0.000000,77.000000) scale(0.100000,-0.100000)"
fill="#000000" stroke="none">
<path d="M769 459 c89 -82 206 -139 358 -174 187 -42 294 -74 343 -101 l45
-25 -49 46 c-75 70 -202 127 -395 175 -179 45 -266 76 -317 115 -59 45 -51 26
15 -36z"/>
<path d="M368 257 c22 -26 172 -95 247 -114 90 -22 312 -22 485 1 174 23 282
20 375 -9 11 -3 -6 8 -38 25 -131 70 -290 89 -547 65 -266 -25 -411 -16 -503
32 -28 14 -30 14 -19 0z"/>
</g>
</svg>
